<svg width="215" height="50" xmlns="http://www.w3.org/2000/svg" xmlns:xlink="http://www.w3.org/1999/xlink"><defs><path id="a" d="M.47.034v.52H.07v-.52H.47z"/><path id="c" d="M.04 49.494h81.324V.061H.04v49.433z"/></defs><g fill="none" fill-rule="evenodd"><path d="M2.093 35.054c-.145.257-.292.504-.406.686l-.185.302c.011.007.029.003.043.004.206-.36.39-.683.548-.992M2.472 33.848c-.132.133-.267.27-.402.404.067-.04.093-.04.139-.058l.263-.346M1.546 36.047c.167-.001.54-.34.354.237-.334.547-.996 1.642-1.374 2.18-.295.584.129.086.193.13-.36.542-.72 1.083-.689 1.105-.153.403.293-.127 1.015-1.177.605-1.292 1.714-3.472 2.171-4.55.46-1.08.333-1.032-1.67 2.075" fill="#FFF"/><path d="M3.783 31.498l-.8 1.457-.828 1.447c-.096.345-.254.799-.009.55.402-.766.722-1.386.983-1.937.255-.554.461-1.035.654-1.517M84.21 21.022c-.019-.012-.005-.07.307-.544l-.307.544c.016.018.061.003-.065.257 1.038-1.924 2.272-4.166 3.585-6.256l.389-.837c-1.652 2.57-3.172 5.246-4.583 7.816a161.148 161.148 0 0 0-3.78 7.332c1.674-3.142 2.783-5.324 4.454-8.312" fill="#FFF"/><g transform="translate(88.116 13.108)"><mask id="b" fill="#fff"><use xlink:href="#a"/></mask><path d="M.074.553L.47.034C.079.481.054.536.074.554" fill="#FFF" mask="url(#b)"/></g><path d="M52.08 19.547a23.907 23.907 0 0 0-1.078 2.044l-.074.158-.142.287-.281.58a118.976 118.976 0 0 0-2.064 4.609 138.032 138.032 0 0 1 2.287-4.804l.448-.878c.093-.192.195-.381.296-.573.199-.385.415-.769.64-1.154a.734.734 0 0 1 1.118-.155c.158.139.214.349.207.546l.002.596c.002.866.019 1.337.005 2.993l.088-3.262c.002-.22.02-.442.01-.662a.743.743 0 0 0-.309-.561.816.816 0 0 0-.629-.142.792.792 0 0 0-.523.378M41.92 43.547l1.638-3.924 1.189-2.885 2.154-5.316a309.68 309.68 0 0 0-2.197 5.151l-1.064 2.58-1.07 2.641-.65 1.753M44.02 37.833c1.675-3.947 3.016-7.317 4.421-10.608a188.725 188.725 0 0 0-4.421 10.608M74.4 16.056c.247 2.824.378 4.539.437 5.513l.288 1.768-.024-.504-.616-8.873-.162-1.775-.216-2.668.293 6.539M74.942 21.57c-.92-3.664.333 3.806 0 0M69.39 7.793c-.046.113-.095.229-.143.343l-.405 1.033.549-1.376M55.096 29.157l-.004.198-.024 1.235c0 .203-.025.409.037.603a.886.886 0 0 0 .35.48.979.979 0 0 0 1.146-.028c.165-.125.274-.31.366-.493l.288-.542-.294.54c-.092.184-.206.365-.376.484a.974.974 0 0 1-1.141-.018.883.883 0 0 1-.327-.488c-.052-.193-.03-.394-.03-.591l.017-1.192.04-3.057.028-3.477-.096 1.888c.02.63.035 1.418.037 2.285v1.185c-.002.326-.007.655-.017.988" fill="#FFF"/><g transform="translate(3.786)"><mask id="d" fill="#fff"><use xlink:href="#c"/></mask><path d="M69.046 22.99l-.65-10.146-.312-4.548c-.026-.351-.023-.722-.235-1.018a1.203 1.203 0 0 0-.908-.491 1.236 1.236 0 0 0-.987.376c-.268.263-.35.644-.492.973l-.582 1.387-.72 1.686-.84 1.935a314.042 314.042 0 0 1-5.252 11.397 230.773 230.773 0 0 1-1.804 3.643l-.457.897-.539 1.04c-.373.712-.761 1.399-1.144 2.104-.193.297-.385.555-.579.833l-.29.41c-.096.14-.194.272-.3.38-.22.225-.538.388-.885.439a1.865 1.865 0 0 1-1.036-.152 1.708 1.708 0 0 1-.76-.657c-.173-.28-.205-.56-.248-.85-.083-.573-.198-1.216-.203-2.001l.034-3.693.04-7.115c.01-.236-.053-.488-.237-.657a.862.862 0 0 0-1.318.15c-.14.218-.26.448-.39.67-.253.448-.49.898-.718 1.341l-.441.867-.57 1.152c-3.01 6.172-5.567 12.602-7.21 17.35l1.221-2.859-.75 2.009-.7 1.952-1.078 2.692-.27.676-.134.338-.068.168-.072.133-.575 1.069-.577 1.07-.072.133c-.024.04-.05.102-.069.108l-.123.11-.246.217-.492.432c-.082.068-.165.154-.246.206l-.122.08-.157.072c-.447.202-1.193.278-1.847.085a3.089 3.089 0 0 1-.89-.404 2.237 2.237 0 0 1-.55-.52c-.114-.156-.19-.315-.287-.472l-.295-.603c-.049-.108-.094-.263-.142-.391l-.07-.203-.035-.103-.025-.131-.103-.526-.027-.657.633-17.507.268-7.189.009-.336c.002-.107.023-.233-.068-.312a.246.246 0 0 0-.307-.032c-.086.072-.152.165-.225.247l-.181.224-.381.492-.473.619c-.63.83-1.247 1.697-1.867 2.572-.716 1.016-1.315 1.94-1.923 2.864l-.933 1.404-.503.73-.145.208-.246.342-.514.7c-.354.476-.701.98-1.07 1.372l-.545.625-.272.313c-.045.045-.092.118-.135.142l-.126.069-1.014.555c-.087.056-.163.066-.243.092-.075.025-.167.042-.257.062a3.18 3.18 0 0 1-.586.06 3.494 3.494 0 0 1-1.285-.227 3.575 3.575 0 0 1-1.102-.678 2.897 2.897 0 0 1-.39-.422c-.058-.072-.102-.139-.146-.205-.022-.034-.046-.064-.067-.102l-.049-.14-.392-1.11c-.013-.003-.008.041.014.13-.054-.17-.128-.307-.165-.504l-.032-.717.173-3.478.08-1.88.137-3.754c.08-2.502.138-5.005.162-7.514a187.09 187.09 0 0 0-.062-7.536c-.005-.225-.005-.137-.007-.164l-.006-.016-.01-.025c-.008-.013-.014-.022-.023-.025-.026-.01-.058.041-.05.067 0 .009.001.013.003.015l.002.002-.028.046-.06.096-.486.77c-.623 1.058-1.264 2.099-1.864 3.185-1.227 2.143-2.394 4.352-3.554 6.561-.86 1.67-1 1.597-1.607 2.697-2.465 4.38-4.274 7.703-7.039 12.7l-.102-.056c-.41.776-.791 1.466-1.112 2.025.234-.653.61-1.528.984-2.374.36-.85.717-1.671.93-2.212.421-1.084.281-1.042-1.576 2.121H.377c.186-.363.342-.694.495-1.007.02-.04.039-.073.058-.109l-.008.005c.754-1.55 1.164-2.51 1.526-3.484-.507.98-1.014 1.96-1.538 2.938.05-.211.066-.356-.035-.281l.11-.272.422-.798c.047-.156.075-.275.085-.36 1.194-2.637 3.17-6.737 2.632-6.03-.379.562-1.27 2.477-2.327 4.627-.08.121-.168.263-.255.409 1.413-2.81-.239-.124.591-1.818l3.396-6.741c2.332-4.565 4.51-8.766 6.916-12.833.295-.52.611-.992.938-1.525.379-.61.765-1.235 1.183-1.723l.617-.784.311-.393c.103-.134.206-.268.321-.354.46-.393 1.227-.493 1.831-.206.304.136.568.356.744.618.183.267.25.546.296.881.097.658.253 1.248.253 2.049.035.733.072 1.6.083 2.153.02.623.035 1.25.043 1.88l.018 1.333c.037 4.901-.109 9.52-.346 14.303l-.033-.955-.272 5.345-.055 1.082c-.04.352-.01.745.253 1.007.244.26.627.39.981.313a.992.992 0 0 0 .48-.24c.135-.123.237-.277.345-.422.296-.4.578-.798.856-1.19l.918-1.332 2.204-3.27a137.08 137.08 0 0 1 2.268-3.29 76.47 76.47 0 0 1 1.201-1.626l.157-.206.21-.263.42-.527c.278-.356.575-.697.867-1.045l.354-.374c.118-.11.233-.192.35-.289.232-.183.465-.384.7-.553.448-.314 1.158-.391 1.758-.16.607.217 1.093.742 1.243 1.273.131.52.247 1.109.25 1.852l-.247 7.26-.315 8.638-.147 4.294-.086 2.919-.024.947-.011.466c-.002.154-.018.31.018.46.064.306.37.526.688.53.32.02.642-.193.756-.506l.684-1.808.333-.871.165-.43.335-.84-.3.766-.16.435-.3.817-.64 1.741c-.056.15-.106.304-.18.449a.81.81 0 0 1-1.219.226.665.665 0 0 1-.228-.384c-.03-.148-.016-.302-.014-.455l.026-.939.024-.55.147-3.695-.1 2.263-.054 1.44-.017.542-.037.846c-.005.279-.066.577.07.836a.829.829 0 0 0 1.087.355.834.834 0 0 0 .307-.278c.441-1.025.836-2.081 1.232-3.073l1.851-4.675a284.026 284.026 0 0 0 1.735-4.524c.292-.582.325-.567.582-1.142.903-2.023 1.843-4.03 2.762-5.963l1.374-2.831.333-.686.36-.717c.346-.672.684-1.364 1.048-1.964-.026-.032 1.473-2.462.95-1.757.024-.036.048-.086.071-.11l.071-.063.142-.128.287-.257.583-.518c.2-.2.374-.286.622-.392a2.56 2.56 0 0 1 .851-.138 2.713 2.713 0 0 1 1.722.638c.228.194.393.413.496.615.057.104.096.195.14.305l.13.343.064.171c.022.061.04.137.06.205.039.143.082.274.117.426l.084.5c.017.184.02.385.03.576l-.058 2.465-.039 1.928-.018 1.444a97.277 97.277 0 0 0-.004 2.454l.008.613.024.183c.016.116.035.222.055.316l.003.109.016.473a.303.303 0 0 0 .243.332.371.371 0 0 0 .41-.207l.208-.436.18-.397.04-.091.194-.382.445-.885a196.425 196.425 0 0 0 1.752-3.581 270.246 270.246 0 0 0 3.382-7.372 333.916 333.916 0 0 0 2.528-5.897c.532-1.246 1.057-2.53 1.59-3.82.552-1.175 1.075-1.354 1.632-1.865l.21-.173.104-.086c.035-.026.066-.033.1-.052.125-.058.284-.128.473-.178.371-.107.85-.175 1.333-.127.485.036.972.191 1.384.394.417.212.72.463.916.657.102.087.21.23.318.367.107.14.217.247.321.468.103.204.222.358.3.65l.129.393.071.493c.036.194.038.43.052.652l.036.679.071 1.377.13 2.498.15 2.907.28 5.739-.57-8.182-.197-3.257-.113-1.972c-.06-.627-.206-1.162-.395-1.521l-.14-.274c-.023-.045-.046-.095-.07-.134l-.072-.1-.285-.397a3.736 3.736 0 0 0-.29-.316c-.055-.054-.127-.114-.19-.17-.072-.057-.155-.112-.232-.169-.675-.47-1.769-.714-2.608-.5a2.78 2.78 0 0 0-.8.28.555.555 0 0 0-.159.114l-.163.14-.324.279-.647.555-.08.07c-.027.022-.054.039-.082.097l-.17.29-.336.577-1.158 2.74-.867 2.013-1.193 2.754a424.634 424.634 0 0 0-2.166 5.067c-.394.916-.788 1.825-1.197 2.734a266.437 266.437 0 0 0 4.47-10.057l.865-2.06 1.283-3.107.339-.6.169-.3c.055-.077.107-.106.16-.161l.64-.585.318-.29c.104-.085.215-.219.313-.256a2.63 2.63 0 0 1 .785-.295 3.432 3.432 0 0 1 1.567.067 3.24 3.24 0 0 1 1.294.701c.158.144.256.265.359.395.101.135.208.317.311.473l.079.12c.025.046.05.108.076.16l.151.33c.055.096.094.243.134.387.038.146.087.273.116.434l.065.522c.02.175.02.375.031.561l.052 1.137.103 2.266.122 2.664-.017-.194-.129-1.909-.199-3.418-.05-.863c-.01-.142-.033-.266-.05-.4-.022-.124-.026-.28-.065-.375l-.096-.323c-.032-.105-.06-.223-.103-.297l-.234-.5c-.357-.538-.501-.917-1.206-1.351a3.27 3.27 0 0 0-1.613-.463c-.563-.005-1.104.148-1.414.341l-.117.07c-.039.025-.08.072-.12.107l-.243.226-.482.45c-.16.155-.32.287-.48.46l-.496.87-3.96 9.363-.56 1.351a180.7 180.7 0 0 1-1.18 2.745c.78-1.69 1.54-3.385 2.279-5.082l1.096-2.546 1.26-2.996 1.119-2.712.495-.894.474-.477.476-.475c.158-.154.32-.339.471-.414.325-.204.859-.364 1.415-.357a3.245 3.245 0 0 1 1.58.433c.369.234.616.5.77.731.081.107.168.272.252.413l.127.22c.043.067.083.184.124.274.082.194.17.366.23.632l.099.367.053.444c.054.612.064 1.277.098 1.912l-.067-.779c-.043-.529-.07-1.396-.33-1.892-.048-.158-.117-.248-.177-.363-.063-.106-.123-.228-.184-.313l-.336-.435a2.57 2.57 0 0 0-.265-.26c-.097-.068-.165-.11-.207-.11-.1-.004.036.15.195.548.097.219.2.508.302.772.1.308.21.615.287 1.025.085.388.106.885.128 1.37l.075 1.47.235 4.444.422 7.545.327 5.73.091 1.67.021.436a.225.225 0 0 1-.002.066c-.019.009-.037.05-.079-.4a82.08 82.08 0 0 1-.144-1.714l-.38-5.446c-.266-3.99-.517-7.979-.521-7.664l.088 2.79-.222-2.536c-.064-.942-.116-2.042-.17-3.065l-.101-1.817a45.77 45.77 0 0 0-.112-1.513c-.067-.883-.285-1.553-.435-2.151-.083-.31-.13-.603-.357-.893a1.75 1.75 0 0 0-.948-.613 1.94 1.94 0 0 0-1.178.056c-.37.153-.626.411-.798.724l-.562.972c-.095.171-.187.309-.283.508l-.29.612-2.445 5.89a300.964 300.964 0 0 1-4.168 9.852c.07.035-.81 1.71-.458 1.18l-2.457 4.789-.574 1.102c-.182.36-.356.698-.521.994l-.454.836c-.137.255-.255.479-.396.635-.063.06-.125.122-.201.165-.204.142-.57.281-.973.256a1.663 1.663 0 0 1-1.049-.533c-.26-.298-.354-.672-.359-1.016-.026-.7-.072-1.396-.067-2.157l.038-3.056.003-2.684-.01-2.582-.022-2.118.008-.508c.004-.168.007-.34-.047-.503-.1-.328-.39-.583-.727-.667-.334-.084-.722-.003-.973.25-.132.12-.216.28-.307.43l-.273.456.395-.647a1.01 1.01 0 0 1 .673-.455c.28-.046.58.026.802.182.224.156.367.385.416.596.032.142.03.288.03.432 0 .146.002.29.003.434l-.136 10.55c-.005.56.042 1.043.075 1.51l.055.676c.004.11.03.22.047.33.04.107.062.22.128.321.082.158.252.345.48.494.229.149.524.25.817.265.34.037.69-.038.97-.214.072-.054.136-.128.204-.207.192-.19.322-.44.471-.681l.44-.73.218-.37.216-.407.43-.81c.287-.533.565-1.092.832-1.611l.758-1.51a158.123 158.123 0 0 0 2.672-5.643c.95-2.061 1.91-4.17 2.867-6.305.96-2.143 1.896-4.265 2.865-6.53l.77-1.747c.132-.285.225-.593.443-.825.21-.234.507-.389.822-.433.63-.101 1.314.261 1.542.857.126.294.106.614.132.925l.053.938-.067-.936c-.028-.308-.014-.63-.147-.92a1.274 1.274 0 0 0-.652-.65 1.465 1.465 0 0 0-.923-.082 1.382 1.382 0 0 0-.783.51c-.197.255-.285.572-.407.861l-.685 1.726-1.055 2.606 1.062-2.588.9-2.227a1.4 1.4 0 0 1 .845-.783c.371-.112.786-.085 1.116.103.335.178.583.504.647.87.059.367.06.737.09 1.11l.149 2.245.085 1.835.181 3.778-.126-3.502.475 6.945.749 12.522.077 1.331c.016.22.009.445.085.654.07.208.204.396.38.53.354.267.863.313 1.26.106.426-.198.572-.676.783-1.056l1.214-2.36 1.484-2.83c2.004-3.776 4.05-7.529 6.225-11.183-.088.239-.191.513-.313.812a239.952 239.952 0 0 0-4.4 7.97 175.939 175.939 0 0 0-3.674 7.324l2.158-4.178a235.707 235.707 0 0 1 2.177-4.137c.018.013.061 0-.062.258a185.004 185.004 0 0 1 3.445-6.378l-1.016 2.394c-.553 1.136-1.464 2.787-2.33 4.466l-3.874 7.378-.522.98-.522.871c-.171.295-.34.578-.635.762-.284.186-.645.27-.994.228a1.652 1.652 0 0 1-.94-.422 1.428 1.428 0 0 1-.45-.874c-.08-.64-.176-1.305-.223-2.054l-.443-7.98-.493-10.72-.227-4.84-.055-1.137c-.025-.376-.22-.75-.552-.94a1.166 1.166 0 0 0-.53-.178 1.146 1.146 0 0 0-.554.073c-.18.06-.332.182-.457.32-.124.144-.201.32-.273.493.126-.36.356-.712.719-.855.346-.161.757-.136 1.084.03.168.079.301.21.414.352.094.154.177.321.192.502.041.358.053.72.081 1.084l.304 4.559.647 9.526zm-62.36-3.879l.852-1.785c-.056.087-.11.17-.161.252-.279.541-.52 1.096-.69 1.533zm6.995-12.87c-1.136 1.809-2.33 3.993-3.562 6.324a410.025 410.025 0 0 0-3.683 7.3c-.005.033-.004.054.004.059 2.131-4.085 4.605-9.18 7.24-13.683zm2.873 4.174l.014-.103c-.007.003-.013.01-.02.01l.006.093zm18.193 37.177c-.236.422-.83.71-1.433.667-.602-.028-1.207-.396-1.444-.882-.131-.239-.13-.477-.172-.719l-.108-.767c-.039-.25-.074-.572-.112-.864l-.04-.503c-.01-.174-.006-.373-.01-.56l.365-11.666c.077-1.888-.001-3.778.101-6.298.045-1.575.067-2.835.086-4.016l.014-.875.004-.606.003-.927-.118.991c.021-.37.034-.718.04-1.036 0-.158.02-.312-.023-.454a.585.585 0 0 0-.259-.335.678.678 0 0 0-.8.067c-.201.211-.368.441-.543.66l-1.626 2.084c.03.022-.274.565-.638 1.067l-2.645 3.777-1.252 1.792-.636.911-.913 1.28c-.083.113-.165.233-.249.34l-.257.308-.515.615c-.35.491-.665.61-.992.858-.161.108-.325.236-.484.325a2.263 2.263 0 0 1-.515.186 2.671 2.671 0 0 1-1.252-.024 2.84 2.84 0 0 1-1.123-.587 2.4 2.4 0 0 1-.64-.853c-.104-.34-.192-.7-.288-1.038-.048-.171-.095-.34-.14-.507l-.03-.68.058-1.5c.014-.263.024-.589.031-.968l.008-.55-.005-.397c-.005-.55-.017-1.18-.006-1.808l.15-4.591-.037.186c-.047 1.245-.094 2.51-.124 3.774l-.06 2.281-.058 1.588-.09 2.07c.013.24.015.496.036.721l.156.524c.108.343.199.713.316 1.034.129.264.345.564.644.815.297.251.666.455 1.055.57.39.116.801.15 1.169.1a2.52 2.52 0 0 0 .508-.119c.152-.057.282-.107.43-.218l.856-.574.106-.071c.036-.037.074-.086.111-.129l.222-.263.439-.522c.155-.189.314-.36.465-.564l.452-.62.45-.617.4-.561c.35-.508.7-1.013 1.049-1.517l2.028-2.988c.667-.982 1.335-1.942 2.013-2.878.335-.467.69-.935 1.023-1.377.141-.19.286-.385.433-.572.134-.174.278-.347.426-.524a.599.599 0 0 1 .62-.18c.216.059.388.249.413.468.012.217.003.44.005.667l-.001.7-.033 1.488-.073 3.158-.075 5.67c-.026 1.937-.08 4.02-.136 6.071l-.19 7.028c.007.267.006.544.038.757l.037.336.048.29c.062.403.128.69.185 1.011.063.29.083.557.19.818.114.261.343.507.614.661.278.17.799.358 1.307.268.522-.06.901-.406 1.041-.677zm1.677-7.691l-1.61 4.332a.917.917 0 0 1-.9.593c-.374-.01-.734-.273-.802-.639-.04-.178-.02-.362-.017-.544l.015-.553.034-1.114.078-2.129.132-3.072c.103-2.52.243-7.4.287-11.336l.012-2.725-.01-1.133-.024-.969c-.034-1.286-.121-1.65-.267-.926.019.201.034.442.047.72l.03.895c.016.622.022 1.345.02 2.151a237.918 237.918 0 0 1-.105 5.692l-.229 6.82-.245 6.33c-.03.833-.07 1.647-.088 2.426a.996.996 0 0 0 .586.91 1.07 1.07 0 0 0 1.048-.068c.32-.196.422-.568.546-.877l.352-.917.6-1.59c.358-.96.539-1.517.726-2.135.142-.51.088-.594-.216-.142zM54.12 27.389l-.402.809-.12.271-.277.584-.156.309c-.055.102-.1.218-.195.295a.457.457 0 0 1-.645-.059c.152.154.43.181.615.037a.7.7 0 0 0 .201-.28l.153-.302.283-.577.13-.273.413-.814zm-5.673-10.481c.408-.494 1.183-.647 1.777-.36.298.134.551.364.7.641.156.28.174.583.188.882.035.598.093 1.231.087 1.953l-.028 2.199c-.032 2.435-.066 4.891-.1 7.333 0 .646-.03 1.28-.007 1.9.038.31.238.59.51.742.275.151.615.186.915.076.31-.096.528-.367.668-.649l.444-.833.833-1.617 2.078-4.095c.724-1.446 1.45-2.904 2.142-4.356 1.393-2.9 2.678-5.766 3.691-8.406l-.106-.047-.216.588c-.915 2.005-1.71 3.592-2.517 5.252.04-.097.085-.2.126-.297l-.23.508a175.367 175.367 0 0 0-1.71 3.594l-.857 1.864a234.312 234.312 0 0 1-3.16 6.25c-.202.376-.402.76-.617 1.14-.222.388-.73.544-1.127.385a.862.862 0 0 1-.462-.405c-.1-.185-.103-.398-.098-.602l.004-1.252.011-6.485.012-1.921c0-.642.021-1.3-.034-1.845-.05-.55-.112-1.027-.17-1.489-.061-.461-.407-.946-.916-1.153-.495-.215-1.114-.196-1.555.11a1.8 1.8 0 0 0-.528.576l-.443.678c-.145.236-.296.436-.436.707l-.421.783a38.554 38.554 0 0 0-.821 1.58c.313-.606.737-1.327 1.156-2.046.205-.375.425-.685.63-1.005.21-.309.383-.637.587-.878z" fill="#FFF" mask="url(#d)"/></g><path d="M72.367 11.348l.526 8.24.458 6.356.388 6.08.075 1.264c.016.21.009.425.083.625.069.2.199.378.37.504.342.258.84.294 1.217.08.401-.21.535-.672.743-1.042l1.203-2.331 1.546-2.944c2.084-3.923 4.21-7.843 6.391-11.575.068-.335-.012-.429-.317-.152-2.293 3.762-4.393 7.614-6.45 11.486l-1.527 2.911-.947 1.847c-.166.286-.262.643-.555.833a.878.878 0 0 1-.952-.012.824.824 0 0 1-.312-.383c-.067-.156-.058-.329-.072-.495l-.054-1.01-.187-3.788-.205-4.546-.025-.276c-.237-2.512-.433-5.814-.632-9.273l-.164-2.878c-.07-1.102-.085-2.324-.295-3.157-.044-.225-.09-.417-.134-.613-.048-.2-.081-.388-.137-.568a1.535 1.535 0 0 0-.806-.937c-.401-.212-.89-.253-1.315-.146-.426.114-.771.392-.948.714l-.575 1.075c-.094.185-.187.35-.282.55l-.285.644-.923 2.316-.795 1.953a264.77 264.77 0 0 1-1.6 3.8 349.353 349.353 0 0 1-3.356 7.533 236.333 236.333 0 0 0 3.557-7.509 312.017 312.017 0 0 0 1.668-3.746l.819-1.888.841-1.973.523-1.18c.178-.382.336-.778.53-1.147.198-.37.593-.623 1.019-.683.425-.05.88.07 1.2.36.343.28.465.723.48 1.135l.089 1.276c.058.868.085 1.782.124 2.67M46.901 31.422c.98-2.245 1.993-4.485 3.068-6.707.37-.776.745-1.531 1.116-2.278l.256-.5.093-.196c.068-.136.135-.27.2-.404.136-.274.288-.55.443-.837a.608.608 0 0 1 .363-.305.57.57 0 0 1 .45.059.469.469 0 0 1 .228.361c.011.146.009.294.013.446l.018.955.004.253.003.13-.003.272-.01 1.18-.02 2.361.135-5.255.01-.397c.004-.131.01-.266-.038-.391a.639.639 0 0 0-.992-.269c-.106.084-.169.206-.237.319-.136.23-.277.454-.405.688-.127.24-.254.473-.362.703l-.583 1.18-.69 1.455c-.218.484-.434.964-.65 1.44a197.002 197.002 0 0 0-2.41 5.737" fill="#FFF"/><path d="M53.295 32.722c-.112-.466-.236-.97-.236-1.624l.063-4.886-.131 4.945c.005 1.054.253 1.745.431 2.335.086.275.238.58.53.851.283.27.672.477 1.084.569.41.093.844.085 1.21-.032.177-.058.34-.135.474-.228.063-.05.125-.085.188-.148l.188-.195c.505-.563 1-.876 1.513-1.92l.76-1.318.734-1.382.98-1.9c.633-1.245 1.249-2.497 1.859-3.75a276.53 276.53 0 0 0 3.313-7.25 283.04 283.04 0 0 0 1.58-3.656l.718-1.71.45-1.122.514-1.3c.08-.222.209-.438.415-.562.2-.13.449-.162.674-.116a.82.82 0 0 1 .548.379c.125.195.124.431.142.656l.1 1.394.107 1.498.142 2.204.288 4.408.233 3.777-.492-10.708-.093-2.009-.047-1.003c-.016-.327-.005-.691-.232-.955a1.059 1.059 0 0 0-.871-.403 1.02 1.02 0 0 0-.836.464c-.289.598-.518 1.223-.785 1.829-.21.49-.42.98-.628 1.47l-.83 1.906a309.74 309.74 0 0 1-5.255 11.375 224.474 224.474 0 0 1-1.812 3.647l-.459.898c-.19.368-.381.734-.572 1.1-.404.77-.828 1.496-1.243 2.251-.052.105-.104.161-.156.23l-.156.199-.311.399-.313.397c-.104.132-.208.271-.318.368-.443.44-1.313.579-1.983.27a1.88 1.88 0 0 1-.812-.65c-.193-.277-.246-.547-.303-.833-.114-.561-.267-1.216-.274-2.063l.045-3.443.012-2.55.002-1.029-.191 7.136c.006.266.006.542.041.768.022.25.063.452.102.659.037.221.082.382.123.57.046.187.075.352.135.518.106.331.37.697.76.932.378.246.852.366 1.301.34.453-.016.856-.21 1.111-.447.268-.276.531-.599.796-.896l.396-.456.4-.695.796-1.396.756-1.428.542-1.047a231.917 231.917 0 0 0 3.114-6.327 247.209 247.209 0 0 1-1.883 3.956l-.97 1.967-.492.98-.592 1.15c-.475.938-.986 1.793-1.488 2.696l-.095.168a.545.545 0 0 1-.094.14l-.187.213-.376.423-.378.423-.19.211-.192.16c-.283.204-.69.329-1.117.33a2.32 2.32 0 0 1-1.222-.345 1.872 1.872 0 0 1-.76-.835c-.12-.284-.194-.613-.295-.942M72.188 8.687l.156 1.845.245 2.111-.09-1.295c-.103-.89-.208-1.78-.311-2.66" fill="#FFF"/><path d="M63.291 18.11c-.033.07-.068.14-.103.211-.818 1.806-1.68 3.63-2.567 5.46a163.327 163.327 0 0 1-1.861 3.867l-.807 1.614c-.226.438-.452.891-.698 1.348l.646-1.211.715-1.38a188.503 188.503 0 0 0 1.747-3.504c1.11-2.29 2.103-4.47 2.928-6.404M56.681 29.01a.297.297 0 0 1-.237-.066.283.283 0 0 1-.095-.227.73.73 0 0 1-.066-.14c.003.138-.036.285.01.423.082.086.254.093.388.01" fill="#FFF"/><path d="M43.356 31.774a224.947 224.947 0 0 1 3.374-7.584 118.49 118.49 0 0 1 1.798-3.678l.366-.703.383-.713c.257-.474.533-.893.8-1.344l.404-.665.202-.334c.068-.11.136-.238.202-.276l.805-.713.404-.355a2.28 2.28 0 0 1 .428-.224c.326-.125.743-.18 1.155-.134.414.046.827.184 1.172.399.35.207.616.493.777.75.077.132.14.245.197.385l.18.433c.117.32.232.685.3 1.142.027.1.02.246.03.367.004.13.021.246.013.386l-.017.816-.035 1.64-.073 4.366-.029 1.95v.215l.004.134.007.257.022.094c.018.074.038.139.058.193l.01-.253.094-3.196.158-6.535-.027-.486c-.015-.155-.051-.279-.076-.42-.044-.297-.138-.474-.209-.707-.166-.396-.309-.715-.508-1a2.795 2.795 0 0 0-1.059-.853 3.015 3.015 0 0 0-1.477-.274c-.244.014-.468.07-.667.133-.09.04-.196.074-.27.118-.08.04-.16.08-.243.16l-.975.824-.24.207c-.04.019-.08.12-.121.177l-.12.202-.48.8-.473.792c-.157.262-.313.52-.458.806-.123.233-.255.476-.385.74l-.366.737c-.167.343-.336.705-.5 1.07-.332.725-.668 1.448-.943 2.02-2.613 5.423-4.747 10.705-6.821 15.991a406.488 406.488 0 0 1 3.138-7.641l.091-.216" fill="#FFF"/><g fill="#FFF"><path d="M111.373 15.84l-1.495 13.428 3.158-.013-1.663-13.415zm2.78 22.121l-.757-6.098-3.853.019-.698 6.105L106 38l3.447-25.981 3.817-.019L117 37.948l-2.846.013zM137.164 37.945l.005-20.279-3.568 20.295-2.283.01-3.558-20.295.204 20.31-2.836.014L125 12.069l4.496-.021 3.031 18.334 2.85-18.362 4.496-.02.127 25.93zM155.695 16.604c-.009-1.855-.939-2.604-1.936-2.602-1.03.006-1.92.767-1.91 2.62l.08 16.692c.009 1.89.905 2.607 1.936 2.601.996-.004 1.919-.73 1.91-2.618l-.08-16.693zm-6.662.272c-.02-4.155 2.035-5.506 4.816-5.519 2.783-.012 4.645 1.352 4.665 5.473l.077 16.212c.02 4.19-2.104 5.505-4.713 5.519-2.646.012-4.747-1.316-4.768-5.473l-.077-16.212zM174.817 38.015l-4.724-17.942.155 17.963-2.817.013-.125-26.31 3.229-.015 4.86 18.25-.156-18.271 2.817-.014.126 26.31zM193.46 16.973c-.01-1.923-.63-2.607-1.936-2.6l-1.752.007.1 20.849 1.751-.009c1.306-.006 1.92-.696 1.912-2.62l-.076-15.627zm-6.391 20.982l-.127-26.31 4.603-.021c2.987-.014 4.71 1.18 4.73 5.473l.075 15.319c.02 4.292-1.692 5.504-4.68 5.518l-4.601.021zM211.667 16.336c-.008-1.854-.94-2.606-1.935-2.601-1.031.005-1.92.765-1.912 2.618l.08 16.694c.01 1.89.906 2.607 1.937 2.601.996-.005 1.92-.731 1.91-2.62l-.08-16.692zm-6.662.272c-.02-4.154 2.034-5.505 4.817-5.518 2.782-.014 4.643 1.35 4.663 5.473l.078 16.212c.02 4.189-2.104 5.505-4.713 5.519-2.645.012-4.746-1.319-4.766-5.474l-.079-16.212z"/></g></g></svg>