<svg xmlns="http://www.w3.org/2000/svg" xmlns:xlink="http://www.w3.org/1999/xlink" width="53" height="30" viewBox="0 0 53 30">
  <defs>
    <path id="a" d="M.28237465.02043138V.3318888H.04130323V.02043138h.24107142z"/>
    <path id="c" d="M.02453231 29.6966821H48.8181612V.03671986H.02453231V29.6966821z"/>
  </defs>
  <g fill="none" fill-rule="evenodd">
    <path fill="#FFF" d="M1.25573626 21.0324209c-.08665811.1539335-.17490628.3023388-.24339231.4114201-.06712313.1096513-.11090649.1813463-.11090649.1813463.00641702.0039894.01697954.0015388.0255545.0023937.12362693-.216168.23396554-.4098244.3287443-.5951601"/>
    <path fill="#FFF" d="M1.48328083 20.3090076c-.07950904.0796141-.16054465.1613639-.24107141.2419354.03981813-.0234202.05571994-.0238621.08294383-.0345411.04999529-.0656945.0993545-.1302843.15812758-.2073943"/>
    <path fill="#FFF" d="M.9275428 21.6279343c.10000323-.0004559.32374698-.2034589.21215904.1424213-.20012004.3284408-.59757754.9850945-.82421747 1.3081782-.17678028.3500405.07723135.051748.11618775.0773371-.21619099.3254773-.43260912.6505557-.41358522.6636637-.09193938.241814.17547416-.0760834.60910546-.7065781.36253302-.7749676 1.02802872-2.0828609 1.30248394-2.730282.27587491-.647706.19977932-.6186405-1.0021335 1.2452598"/>
    <path fill="#FFF" d="M2.26971002 18.8986953l-.47985653.8743604-.49689285.8679775c-.05741242.2069354-.15230476.4793537-.00533805.3303785.24106402-.4600907.43346093-.831617.58962725-1.1626224.15309979-.3320313.27701067-.6205782.39246018-.910094"/>
    <path fill="#FFF" d="M50.5261041 12.6134616c-.0113576-.0077508-.002953-.0418886.1843898-.3267881-.064738.1147805-.1239109.2194735-.1843898.3267881.0093132.0107144.0367416.0012538-.0392972.1538195.6231889-1.1542447 1.3632469-2.4992962 2.1513473-3.75344669.0817176-.17587513.1606526-.34610813.233057-.50226428-.9910599 1.54258337-1.9032416 3.14751527-2.7498903 4.68987067-.8441499 1.5446351-1.6127154 3.0369521-2.2677621 4.3988161 1.0042914-1.8848161 1.6697303-3.1945331 2.6725453-4.9867953"/>
    <g transform="translate(52.8694 7.864799)">
      <mask id="b" fill="#fff">
        <use xlink:href="#a"/>
      </mask>
      <path fill="#FFF" d="M.04425114.3318888C.12523532.225828.20165149.1257513.28237464.02043139.04731823.28846144.03217856.3214024.04425115.3318888" mask="url(#b)"/>
    </g>
    <path fill="#FFF" d="M31.2485467 11.7282557c-.1659338.2837597-.3209644.562789-.4554946.8327568-.069565.1333596-.1324858.2665483-.1919994.3937529l-.0441241.0946055-.0854088.1722277c-.0563902.1163192-.1126669.2321256-.168546.3476469-.4397644.9291291-.8468758 1.839622-1.238257 2.7656166.4368682-.9731834.9027549-1.9361653 1.3720489-2.8820498.089895-.1764451.1795629-.3520922.2687765-.5271695.0559927-.1147804.1168124-.2284211.1775185-.3435435.1194246-.2309287.249355-.4612306.3840556-.6922733.071155-.1134696.1923969-.1920036.321873-.2051116.1275453-.0146468.2607126.025646.3490743.1118739.0944948.0833782.1286243.209386.124422.327358.0003407.1207645.0007382.2401043.0011925.3580193.000795.5193047.0109033.8018675.0028962 1.7959097.0174906-.6512396.035038-1.3036189.0524151-1.9573661.0016468-.1325617.0119822-.2651235.0064738-.3973433-.0066442-.1330176-.0770042-.2594813-.1855256-.3367045-.1061363-.0796169-.2474242-.1088534-.3774114-.0849741-.1299872.0268429-.2475946.1102212-.3139795.2267684"/>
    <path fill="#FFF" d="M25.1522052 26.128024c.3416919-.818566.6682215-1.6008855.9827121-2.3542534.2462885-.5980097.4831502-1.1732228.713027-1.7312246.4525984-1.1166305.8774276-2.1647004 1.2926029-3.1895748-.4503837 1.027952-.8881605 2.0594374-1.3181006 3.0910938-.2131244.5167971-.4259081 1.0327963-.6384647 1.5481686-.2144306.5287652-.4282365 1.0569605-.6420424 1.584244-.1290785.3479318-.2651988.7155257-.3897343 1.0515464"/>
    <path fill="#FFF" d="M26.411962 22.6996385c1.0050865-2.3680453 1.809485-4.3899824 2.6527832-6.3647878-.9994077 2.1946208-1.8956321 4.3878738-2.6527832 6.3647878"/>
    <path fill="#FFF" d="M44.6398091 9.63360335c.1483296 1.69469315.2268103 2.72321505.262473 3.30783175.0421933.2590254.0977317.6002893.1728051 1.060665-.004543-.0989369-.0095403-.2042568-.0143105-.3022818-.1215258-1.7511716-.244812-3.5272483-.3696315-5.32367088-.0333912-.36651102-.0661009-.72487229-.0972206-1.06499634-.0460549-.56900109-.0896679-1.10791077-.1295329-1.60105645.0584914 1.30891908.1172667 2.62370825.1754174 3.92350872"/>
    <path fill="#FFF" d="M44.9653736 12.9415491c-.551615-2.1980403.1993829 2.2842681 0 0"/>
    <path fill="#FFF" d="M41.6344932 4.67561144c-.0283371.06787663-.0573556.13734902-.0860334.20602353-.0803547.20482672-.1630945.41580849-.2430516.61995131.1119854-.28125204.2185761-.54859821.329085-.82597484"/>
    <path fill="#FFF" d="M33.0576853 17.4942873l-.0025555.1188838-.0140833.7410578c.0001136.1215055-.0152759.2451766.022204.3617238.0339591.1162053.1096004.2188466.2098308.2872931.1989275.1398567.4911005.1404266.6873021-.0159575.0994354-.0754565.1645142-.1860766.2198822-.2961838l.1729187-.3253063-.1765531.3247364c-.0553113.1101072-.1236837.2186186-.2258449.2899717-.2011422.1484623-.492577.1355823-.684406-.0111133-.0968231-.072037-.1672399-.176901-.1964288-.2923084-.030779-.1159772-.0172067-.2366278-.0174907-.3551697.0034641-.2403323.0068713-.4788409.0102218-.7149558.0080071-.6278161.015787-1.2417833.023283-1.8343218.0061331-.7246444.0119822-1.4231297.0173203-2.0858814-.0189671.3755726-.0383886.7562175-.057526 1.1329299.011755.3782512.0206139.8507091.0223176 1.3705837 0 .2285351-.0002272.4669297-.0003408.7108524-.0009086.1957651-.0040887.3934109-.0100514.5931654"/>
    <g transform="translate(2.27151)">
      <mask id="d" fill="#fff">
        <use xlink:href="#c"/>
      </mask>
      <path fill="#FFF" d="M41.4278596 13.7944124c-.1313501-2.0502618-.261678-4.08165954-.3902454-6.08803808-.0626937-.91550817-.1251602-1.8253172-.1871157-2.72868622-.0156166-.21069682-.0140833-.43353278-.1408336-.61077571-.1234566-.17171477-.329369-.28495647-.5453328-.29475898-.2157367-.01681243-.439878.06388725-.5918988.22545757-.1607661.15786588-.2096036.38685691-.2954099.58387581-.1176074.28005523-.2348174.55959753-.3491311.8321869-.1441841.33818634-.2880275.67557481-.4315869 1.01199442-.1682622.38782577-.3362971.77468268-.5037642 1.16045675-.3413512.78038181-.6872454 1.55392465-1.0337075 2.32176834-.6955932 1.5343767-1.4014082 3.0418534-2.1176154 4.5165032-.3568542.7379803-.7192169 1.466272-1.0831128 2.1861861-.0913715.1797505-.1826862.3591021-.273717.5379978-.1080103.2085881-.2158503.4168343-.3232927.6245676-.2239709.4269218-.4569711.8385699-.6868479 1.2617873-.1155063.1782117-.2311262.333285-.3470868.5001556l-.1742816.2454045c-.0574124.0838342-.1163013.163622-.1797332.228706-.1324291.1347275-.3228952.2325815-.5313062.2628439-.2085247.0315162-.4293723-.0035905-.6213717-.0908441-.1928512-.0861709-.3565703-.229276-.4558921-.3941518-.1040351-.1680674-.1234565-.3361347-.1488407-.5104711-.0501435-.3438284-.1187999-.7290896-.1218665-1.2006356.0072689-.7697244.0138562-1.4958505.020614-2.2152516.0067577-1.2319238.0147648-2.6927817.0234533-4.2690469.0061899-.1415664-.031574-.2930493-.1420829-.3942658-.1030698-.1045221-.259009-.1546174-.4090422-.1415664-.1520777.0124811-.2967161.0992218-.3818977.2308717-.0831941.1315359-.1557688.2693409-.2336248.4024726-.1517369.2685999-.2936495.5386247-.4306216.804774l-.2649716.5199316-.3419759.6913614c-1.8059074 3.7030094-3.3400854 7.5610351-4.3254665 10.409688.254182-.595388.4977447-1.1660419.7322781-1.715096-.1544627.4134718-.3043823.8153175-.4498726 1.2051949-.144752.4035554-.2850177.7944017-.4202294 1.1714561l-.6467557 1.6154182-.1616747.4052651-.0810362.2027751-.0405464.1008176-.0429883.0799588-.3452696.641152-.3461781.641608-.0432723.0803578c-.0140266.0243352-.0299272.0612086-.0412279.065027l-.0736537.0652551-.1475914.13051-.2955235.2596524c-.0491782.0406348-.098981.0920409-.1477617.1235571l-.0729155.0473028-.0943813.0437123c-.267811.1209355-.7158664.1666995-1.1079291.0510642-.1970535-.052489-.3817272-.1420793-.5341456-.2426689-.1545195-.105092-.2617347-.2171939-.3304479-.3113435-.0682021-.0942636-.1138027-.1892681-.1719533-.2835887l-.1767803-.3618947c-.0292457-.0647991-.056447-.1576379-.0849545-.2348611l-.0421933-.1217334-.0208979-.0614936-.0154463-.078705-.0616715-.3155038-.0161277-.3943228c.1265231-3.4970998.2530462-6.9913501.3800805-10.5042366.0533804-1.4332171.1067609-2.8701386.1605389-4.3132152l.0053949-.2016352c.0013061-.0641152.013629-.1397426-.0407168-.1875583-.0471907-.0471318-.1282836-.0583591-.1842195-.0186932-.0516769.0428005-.0911444.098595-.1349845.1482344l-.1087486.1343285-.2285139.2948729-.2834845.3713553c-.3778657.497705-.7484058 1.0183775-1.1203656 1.5434383-.4298265.6094649-.789293 1.1635343-1.1540975 1.7180596-.1845034.2777185-.3690068.5554371-.5598705.8428442-.0985267.1432191-.1985868.2888319-.3013726.4379781l-.0868853.124697c-.0490078.0679336-.098186.1363801-.1478185.2052826-.1013661.137805-.2042088.2778326-.3086982.4198549-.2120455.2858113-.420343.5883781-.6415881.8231823l-.3269839.3751167-.1634351.1876723c-.0268039.0272418-.0553681.0709542-.0806954.085031l-.0760956.0416037-.6080833.3329431c-.0520744.0337388-.0978453.039495-.1460013.0552246-.0451463.0149317-.1002304.0255321-.1539516.0370443-.1067042.0226255-.227435.0338528-.3519137.0363035-.2499797.0043883-.5205166-.0409768-.7709506-.1364942-.2491847-.0975121-.4803676-.2407312-.6610095-.4068608-.09148503-.0828654-.17104468-.1674405-.23379515-.2527564-.03532198-.0434274-.06172829-.0833783-.08796423-.1230442-.01317476-.0206309-.02771242-.0386971-.039865-.0616076l-.02935927-.0832643-.23572597-.6662283c-.00738241-.0022796-.00437266.0245063.00840459.0780211-.03219866-.1021284-.0765499-.1842528-.09875391-.3025098l-.01936462-.4302273c.0347541-.6961486.06939463-1.3916134.10414874-2.0868502l.0477585-1.1276868.08200152-2.2530368c.04798565-1.5012647.08296691-3.00287137.09761815-4.50789749.01414015-1.50457019.00954034-3.0142126-.0370824-4.52208829-.00335048-.13467043-.00335048-.08195348-.00459981-.09842397l-.00318012-.0091186-.00641701-.01498871c-.00459981-.00820675-.0083478-.01362092-.01362906-.01533066-.01555985-.00552816-.0348109.0248482-.03038145.0405778 0 .00512922.00119254.00763683.00238508.0084917l.00068146.00119682.00028393.0006839.00011358.00005699-.01692275.0268429-.03634416.05767519-.29137797.46231338c-.37394737.63454108-.75805974 1.25905169-1.11809411 1.91091813-.73653718 1.28560963-1.43678698 2.61082822-2.1323234 3.9367307-.51654142 1.00224891-.59990584.95808061-.96436965 1.61803981-1.4789235 2.6280966-2.56459179 4.6215381-4.22347568 7.6196222 0 0-.04077361-.0222266-.06133078-.0332259-.24628849.4656759-.47446169.8796606-.66714254 1.2149974.14066327-.3918721.36662174-.916819.59019513-1.4244974.21596384-.5100721.43033761-1.0026479.55822363-1.3272703.25264872-.6504986.16888679-.6247956-.94574326 1.2727296l-.00073824-.0003419c.11136078-.2177068.20483343-.4160935.29694316-.6040508.01232295-.0234804.02294226-.0434843.03447017-.065141-.00198757.0019947-.00283938.0015387-.00442944.0029065.45220089-.929699.69809187-1.5062229.91536182-2.0904407-.30443916.5876373-.60853758 1.1761294-.92263066 1.7626268.0302111-.1263497.0394675-.2133754-.02123862-.1685232.02163614-.0536289.04168222-.1034962.06558986-.1629952.1377671-.2602792.25350054-.4789548.25350054-.4789548.02833709-.0936367.04520305-.1648188.05133613-.21594.71626395-1.5821923 1.90148118-4.0422216 1.57926746-3.6177504-.22766211.3367615-.76203488 1.486048-1.3963541 2.7760459-.04764493.0727779-.10074148.157695-.15332694.2451766.84789796-1.6860875-.14299157-.0743166.35503704-1.0905854l2.03714713-4.0446152c1.39919349-2.73905867 2.70593651-5.25972666 4.15004911-7.69952401.17683707-.31191335.3663946-.59561602.56270986-.91550816.22720781-.36565615.4586747-.74105781.70961979-1.03370811l.37048331-.4700642.18637741-.23577299c.06195544-.0805857.12385409-.16077244.19262406-.21234956.27581813-.23605795.73613964-.29624076 1.09884304-.1237851.1821183.0812126.3405562.21326143.446295.37089935.1097707.1598036.150374.32718702.1772346.52853727.0581506.39489268.1520208.74852367.1517936 1.22913126.0211251.44008678.043613.96007536.0499733 1.29216363.0118686.37334998.0210114.74920757.0261223 1.12831366.0034073.26814405.0069281.53309658.010449.79913194.0225447 2.94080782-.065022 5.71172462-.2072753 8.58192022-.0064738-.1843669-.0134019-.3764845-.0202733-.5728195-.0542891 1.0680168-.1087485 2.1371165-.1630376 3.2066722l-.0330505.6495298c-.0233397.2109817-.0057923.4465268.1520208.6040507.1463421.1562701.3758214.2344052.5885483.1879003.1050006-.0225686.2085247-.0683326.2879139-.144302.081093-.0735757.1419694-.1660726.2069346-.2532123.1777457-.2394204.3472004-.4788408.5135885-.7141579l.5507844-.7991319c.4401051-.6526074.8807781-1.3062405 1.3227004-1.9617544.4429445-.6579645.8913974-1.3186646 1.3604642-1.9734946.2358396-.326845.4746321-.6527783.7210342-.9759189l.0939269-.1238421.1257281-.1576379.2525351-.3162447c.1665585-.2138313.3444746-.4180881.5197216-.6270182l.2128405-.22426078c.0704736-.06582495.1393571-.11512242.2094332-.17342451.1396979-.11016418.279339-.23030183.4206837-.33191731.2686629-.18864118.6944575-.23491811 1.0543782-.09563139.3640096.12988316.6557282.4445321.745964.76328439.0785375.3122553.1483296.6653734.1502604 1.1115013-.0490646 1.433787-.0985836 2.8844434-.1487839 4.3553887-.0633184 1.7411411-.1260688 3.4646718-.1885922 5.1833013-.0295296.8595427-.059116 1.7176606-.0885889 2.5765195-.0171499.5829639-.0343566 1.1660988-.05162 1.7510005l-.0141402.5684882-.0067577.2796563c-.0009086.0922689-.0108465.1856206.0111304.2753819.0382749.1839679.2215858.3163017.412563.3186953.1925673.0117972.3851346-.1160343.4536206-.3039915.1362338-.3599001.2732627-.7213959.410689-1.0846584.0662146-.1737094.132713-.3479318.1994386-.5226671l.0988675-.2580566.2012558-.504316-.1795629.4602047-.0969934.2610201-.1800172.4903531c-.1275453.347533-.255261.6953508-.3833742 1.0445365-.0339022.0898753-.0637158.1822582-.1078967.2690559-.0498029.0831503-.1210147.1530786-.2065371.1955941-.1708743.0878806-.3858728.0578462-.5247756-.0602398-.0691107-.058701-.1212986-.1400276-.1371992-.2298459-.0177746-.0891913-.0094836-.1814602-.0081207-.2733302.0051677-.1871024.0103354-.3748318.0154463-.563074.0049405-.111589.0099947-.2230069.0145945-.3306635.0297567-.7513732.0591728-1.4931149.0879074-2.2165624-.0202164.4559303-.0402625.9082702-.0601382 1.3575326-.0107897.2897438-.021409.5774928-.0320283.8638741-.0034073.1096512-.0067578.2178207-.0103354.3258192l-.0224879.5072795c-.0024419.1672695-.0394107.3462791.0423636.5016374.077061.1535915.2406097.2492229.40802.2612481.0841027.0037044.1680918-.0124241.2440738-.0479297.0754141-.0378992.1365178-.098025.1839923-.1669845.2649149-.6149931.5018902-1.2486793.7397173-1.8435544.3837717-.9699918.7562993-1.9107471 1.1104846-2.8055675.3759917-.9578527.72535-1.8686306 1.0406356-2.7142674.1754741-.3492426.1954066-.340124.3494718-.6852633.5415848-1.2135727 1.105544-2.4177417 1.6574074-3.5773436.2806451-.5787466.5561793-1.1466079.8239903-1.6988535.0672368-.1382039.1338488-.275382.2001201-.4116482.0725747-.1445869.144752-.288034.2163613-.4303982.2069914-.4031564.4097237-.8179961.6282998-1.1778961-.0159006-.019434.8840149-1.47755632.5700922-1.0546239.0140834-.0213148.0285075-.05152015.0426476-.06554001l.0424773-.03807018.0852952-.07671028.1720669-.15404748c.1155063-.10292627.2320347-.2068214.3495286-.31128645.1207876-.11968172.2248795-.17131583.3733795-.23497511.1499197-.05140615.326416-.08525898.5108626-.08303632.3703698-.00279257.7639657.15034304 1.0330261.38309549.1366881.1165472.2354988.24751319.2973975.36884766.034243.06251945.0576395.11688915.0839323.18294208l.0779128.2057955.0390131.1027554c.0126637.0368163.0239077.0824664.0358899.1232721.0230558.085544.0490646.164021.0697922.255207l.0507682.3006291c.0098811.1097653.0117551.2303018.0181721.3448543-.0118119.4962233-.0234534.9899958-.0349813 1.4789811-.0078935.3901625-.0156166.7765064-.0232262 1.1568663-.0036912.2937332-.0074392.583135-.0109032.8666667-.0073824.4912649-.0073824.981675-.0023851 1.4721991l.0047134.3678788.0140266.1097652c.0100514.0698144.021125.1333597.0330504.1898381.0006247.0213147.0011358.0425155.001874.065255l.0095972.2836457c-.0095972.0889064.0483831.1824291.1460581.1991275.0927912.0222267.2031866-.0294645.2457206-.124241l.1249898-.26159.10784-.2379387.023794-.0545976.1166421-.2290481.2671864-.5310448c.3565135-.7090857.7055878-1.4258083 1.0509142-2.1488568.6909934-1.4459262 1.365348-2.9186952 2.0294808-4.42280948.3303911-.75296899.6606119-1.51254897.9868008-2.28170349.1757581-.41706229.3523112-.8360053.5297729-1.25677203.3193176-.74738385.6340353-1.51750722.9536368-2.29253184.3319812-.70452639.6452793-.81178401.9799295-1.11834018l.1253306-.10361018.0629776-.05186208c.0207843-.01561561.0396946-.02011792.0597407-.03100326.0752438-.03493566.1706472-.07722321.2838252-.10680169.2229487-.06451414.509954-.10549088.7998555-.07653931.2910941.02199864.5830967.11495145.8305209.23668485.2503772.12691962.4316438.2776046.5497055.39380985.0608197.052375.1256713.13826088.1904093.22032835.0645109.08440411.1302144.14846232.1928513.28073912.0617283.12247429.1330537.21502815.1793925.38987745l.0777992.23600095.0429315.29606978c.021409.11609126.0227719.25742968.0311765.39090329.0069849.13518335.014197.27087963.0212386.40725979.0143673.27327326.0285075.54859821.0430452.82614582.0254409.49354461.0511089.99404217.0772881 1.49932699.0297.57373137.0599111 1.15840506.0902925 1.74399062.0570149 1.17105708.1143706 2.34559078.1677511 3.44318608-.112383-1.6141644-.2265264-3.25226524-.3419191-4.90900219-.03907-.64941581-.0783671-1.30111127-.1176642-1.9542885-.0227151-.39392383-.0455438-.7882466-.0682589-1.18325327-.0356059-.3758006-.1232862-.69683256-.2367482-.91254461l-.0838755-.16447688c-.0139698-.02672892-.0278828-.05693431-.0420229-.08047171l-.0430451-.05938493-.1713855-.23839459c-.0541755-.0681046-.1097707-.12555182-.1739977-.19000898-.0329937-.03214309-.0762091-.06799061-.1135755-.10172946-.043329-.03396681-.0930183-.06747769-.1394707-.10121654-.4047831-.28250585-1.0613631-.42846055-1.5645594-.30068607-.1977918.03960895-.3670761.10372416-.4804812.16835229-.0300408.01128427-.0624666.03812717-.0951763.06821858l-.0976749.08389118-.1947253.16755441c-.1298736.11136099-.2591225.22272198-.3879171.33339908l-.0483264.04166063c-.0161277.01356393-.0318579.02336643-.0491214.05858705l-.1013094.17359549-.2018236.34610813c-.2333977.55235964-.4651485 1.10067289-.6951389 1.64442683-.1748495.40617696-.3484497.80893444-.5201191 1.20770254-.2437898.56290302-.4827527 1.11463574-.7156961 1.6524056-.4667953 1.07491282-.9042882 2.09568392-1.2997013 3.03997272-.2362371.549795-.4727581 1.0953726-.7182515 1.6408363.6279022-1.3373577 1.2344522-2.6806995 1.8198772-4.02278752.2930816-.67078755.580314-1.34157509.8618109-2.01139378.1735434-.41284494.3465189-.82477802.5191537-1.23597022.2573621-.62297184.5140995-1.2445759.7701555-1.86441322.0680885-.12070757.1358363-.24078822.2031866-.36035596l.1012526-.17935161c.0329936-.04667587.0644541-.06400122.0965959-.09728414.1285675-.11768702.2562264-.23469015.3832038-.35095239l.1909204-.17370947c.0625801-.05077924.1295329-.13142193.1879675-.15342057.113178-.06884548.2775218-.13495538.4713384-.17707195.2845634-.05699129.6296058-.04952544.940178.03989391.3107426.08486004.5989973.25492206.776459.42099469.094722.08639881.1533269.15900572.2148281.2370268.06099.08058569.1249898.18966703.1870588.28324674l.0469635.07283487c.0155031.02712786.0303815.06422919.0457142.09574538l.0909739.19741784c.0327666.05790316.0561631.14623967.0802979.2324105.0228287.08742465.0523583.16379299.0697354.26039323l.0386724.31299619c.0122094.10526293.0122662.2252296.0189104.33698953l.0307789.68190085c.0206708.45342274.0412847.90678849.0618987 1.35958433.0244755.53463534.0488375 1.06807386.0731426 1.59889079-.0035208-.03966595-.0066442-.07528551-.0103354-.1165472-.0255544-.38115778-.0512793-.76305645-.0769474-1.14552503-.0396946-.6822428-.0795028-1.36585338-.119311-2.05077477l-.0300408-.51770892c-.0059059-.085088-.0202732-.15968961-.0299839-.24016132-.0132315-.0746016-.0156734-.16783936-.0389564-.2252296l-.0577531-.19325748c-.0194782-.0634883-.0366849-.13410051-.0620123-.17832576l-.1404929-.30062908c-.2138059-.32205781-.3006343-.54945308-.7234192-.81018825-.2753638-.16607264-.6273343-.27486902-.9676633-.27749062-.3377736-.00341947-.6622588.08879244-.8486362.20454176l-.069849.04166064c-.0235101.01544464-.0484399.04331338-.0725179.06428618l-.1454903.13563928-.2893904.27013874c-.0961984.09312378-.1913747.17194274-.287346.27566689-.0997193.17473531-.1991547.34884372-.2979653.52204027-.8481252 2.00495376-1.649514 3.89968635-2.3765676 5.61803089-.113973.27526796-.2273781.54882616-.3356724.81064416-.2315805.5495671-.4665114 1.1007869-.7073483 1.6468775.4669089-1.0143881.9239936-2.03082783 1.3668245-3.04943325.219655-.51018607.438799-1.0193463.6576022-1.52753768.2525351-.60046029.504616-1.19983774.7561857-1.79750545.224482-.54420987.4487369-1.08802081.6710609-1.6269305l.2969432-.536858.2846202-.28603931.2856424-.28495647c.095006-.09226891.1925105-.20305999.2826895-.2481401.1950659-.12236031.5150081-.21861861.8490905-.21423028.3351613-.00159576.6778186.10486398.9477876.25959535.2213587.14042655.3694044.30045811.4624795.43894695.0483264.06365928.1004007.16288112.1509986.2475132l.0760956.13147892c.0256113.04086275.0496325.11067709.074392.16464785.0488942.11688914.101934.21975843.1376535.37944804l.0595136.2199864.0316307.26649129c.0327098.36736589.0387293.76664691.0592297 1.14723477-.0134587-.15695402-.0279396-.32393852-.0402625-.46721463-.0260088-.31738453-.042023-.83777204-.1976782-1.13543757-.0289618-.09477653-.070644-.14851932-.1069314-.21764976-.0374231-.0634883-.0737105-.13700707-.1099978-.18807127-.0712119-.09204095-.1398115-.18083338-.2017669-.26096314-.0554249-.06251946-.1126669-.11688915-.1591761-.15575721-.0579803-.04052081-.0986403-.06576796-.1237973-.0661669-.0599679-.00216567.0215793.09073014.1165285.32901075.0587753.13136493.1199925.30501741.1817776.4628833.0596839.18510772.1258984.36941757.1717261.61516404.0509954.23315138.0637727.53132984.0772314.82255536.0148784.29208039.0297.58626945.0445784.88199728.0465091.87817887.0939269 1.77453796.1411175 2.6659388.0884186 1.58105252.1760989 3.14460872.2535006 4.52687552.0787646 1.381925.1471938 2.5826746.1959745 3.437658.0233398.4275487.042023.7686986.0548002 1.0029328.005338.1138116.0095403.2019771.0123797.261419.0007383.0255321.0004543.0390391-.0010789.039324-.0113008.0054142-.0220905.0297495-.0474178-.2404462-.0234534-.2349751-.0530398-.5912847-.0863742-1.028066-.06099-.8746454-.1446384-2.0711207-.2282868-3.2673679-.1592896-2.3935774-.3101747-4.78732582-.3127301-4.59879861.017661.55811575.0354355 1.11759931.0532101 1.67457521-.0462252-.5282523-.0914283-1.04522034-.1330537-1.52161058-.0386725-.56523966-.0701329-1.22565479-.1025019-1.83910909-.0212954-.38554611-.0419662-.75633148-.060479-1.09035746-.0216361-.35522674-.0437265-.66702611-.0668959-.90752938-.0400922-.52990506-.170988-.93209263-.2612237-1.29113779-.0499165-.18539268-.0777992-.3613818-.2142034-.53537623-.1301576-.16812432-.3347638-.31105848-.5686158-.36816376-.2315805-.06177857-.4873525-.05095022-.7068372.03368185-.2224944.09186997-.3755374.24688629-.4790615.43450164-.1117015.19342845-.2243684.38793974-.3373193.58324891-.0565606.10258433-.1116447.18533569-.1695114.30478945l-.1737137.36719491c-.4827528 1.16239446-.9745915 2.34707251-1.4673388 3.53385923-.7070076 1.7522544-1.5770528 3.8412133-2.500876 5.9111371.0421933.0210298-.4861599 1.0265272-.2749095.7086298-.4889426.9531794-1.0162169 1.9806755-1.473983 2.8728172-.1199357.2303588-.235158.451884-.3443041.6615549-.1091461.2152562-.2138059.4186581-.3129005.596186-.0996058.183455-.1907501.3516363-.2720702.5014664-.0822854.1532496-.1532701.2875211-.2379975.3812148-.0377638.0364174-.0745623.0732338-.12039.0991078-.122264.085031-.3420894.1685233-.583551.1534206-.2456638-.0236514-.4728148-.1486903-.6293786-.3200631-.1560528-.1784398-.2123863-.4027575-.2156232-.609123-.0158437-.4204818-.0432154-.837829-.0399785-1.2942153.0076663-.6289559.0151623-1.2359702.0223743-1.8336379.0007951-.5418163.0015333-1.0751978.0022716-1.610859-.001874-.510357-.0038616-1.0229937-.005906-1.5487954-.0043726-.4106793-.0087453-.831389-.0134587-1.2706779l.0049974-.3047895c.0018739-.1008746.0038047-.2043708-.0285643-.3019969-.0603086-.1969619-.233568-.3498695-.4360164-.3999649-.2005743-.0504373-.4334609-.0022226-.5839485.1500581-.0793892.0711252-.12976.1671555-.1842762.2576577l-.1637759.2738431c.0716094-.117345.151964-.2492799.2369185-.3884526.0851249-.137919.234931-.2427829.4038177-.2727604.1684893-.0275838.3483361.0153877.481333.1090814.1344734.0932947.2200526.2309857.2493551.3574494.019535.0852589.0183992.1726836.0180017.2593674.0007382.0872536.0015333.1742793.0021579.2605072-.0279963 2.1723941-.0549705 4.2635757-.0815472 6.3295672-.0031233.3361346.0249866.6257074.0450327.9067315l.0327665.4049231c.0023283.065768.0185128.1315929.0279964.1975889.0239644.0644571.0375935.1326757.0772881.1931435.0488375.0947195.1507715.2068214.2876868.2961837.1371992.0895903.3147745.1498301.4904758.1592337.2042656.0222266.413926-.0226825.581677-.1281164.0434426-.0326561.0817744-.0772232.122264-.124412.1155631-.1137547.1937031-.2645536.2831438-.4089696.087226-.1450428.1749631-.2909975.2632112-.4377501l.1313501-.2218671.12976-.2443217c.0856928-.1617413.171783-.3239385.2580436-.4865347.1722372-.3190373.3385118-.654374.498994-.9661164.152248-.3033647.3040416-.6058175.4545292-.9057627.5967257-1.2017754 1.1500088-2.3709518 1.6036862-3.3856818.569354-1.2369391 1.1456929-2.5025448 1.7197603-3.78348115.5757143-1.28532467 1.1375156-2.55873817 1.7194197-3.91803755.1538948-.34975558.307676-.6992262.4612301-1.04806992.0798436-.17063193.135666-.35579665.2666185-.49462745.1257849-.14054053.3040417-.23355032.4927474-.2598803.3779225-.0608667.7883276.15649809.9256404.51417546.0755277.17621709.0636023.36839173.0788214.55458229l.0317443.56318798-.0400921-.56182018c-.016866-.18499375-.0080639-.37745335-.088305-.55150477-.0762091-.1714868-.2180082-.31789744-.3908133-.39090329-.1720101-.07539948-.3696315-.09312378-.5541917-.04872756-.1848441.04314241-.3545827.15307862-.4697483.30632821-.1179482.15279367-.1709879.34268866-.2441306.51634114-.1378239.34719097-.2748527.69238724-.4110297 1.03547484-.2170428.53623109-.4254539 1.05126143-.6330131 1.56361317.2230623-.54307005.4431148-1.07930115.6374993-1.55301279.1831405-.45296681.3629305-.89772688.5401651-1.33616091.0953467-.21953047.2816673-.39967996.5064332-.4694373.2228352-.0674207.4719063-.05123518.6700955.06172157.2005176.10702965.3496422.30216785.3879172.5224392.0352652.21981543.0354923.44168254.0537212.66594329.0301543.4523969.0598543.90069042.0894407 1.34647633.0173771.37101333.0344702.73473178.0514497 1.10107182l.1084078 2.26699974c-.0254977-.70617914-.0504275-1.4056333-.0755277-2.10132604.0961417 1.40705808.1911476 2.79730377.2847338 4.16703257.1485 2.4813439.29859 4.9891319.4494751 7.5129914l.0463388.798847c.00937.1315929.0052813.2668902.0510522.3922141.0420229.1250389.1220369.2374257.2280028.3176125.2125566.1608294.5179044.1885272.756129.0641152.2554881-.1189978.3432252-.405949.4694644-.6339142l.7282461-1.4156638.8904888-1.6978276c1.2023103-2.2660309 2.4298912-4.517472 3.7349306-6.7102691-.0527558.1434471-.1145977.307753-.187286.4873896-.9271169 1.6014553-1.8149934 3.2228577-2.6398923 4.7820825-.8230818 1.5577431-1.5855141 3.0733696-2.2045007 4.3941429.4825824-.9343153.8906024-1.7243857 1.2944769-2.5063062.4091558-.7934328.8170054-1.5770631 1.3060048-2.4824838.0108464.0078648.0370256-.000228-.0372528.1548453.6053575-1.1691194 1.3271866-2.5275639 2.067415-3.8269085-.1890464.445273-.3996154.9412683-.6098437 1.4365796-.3314133.6816729-.8781658 1.6721246-1.3976602 2.6797307-.7873622 1.499042-1.5591646 2.9688475-2.3248339 4.4267419l-.3131277.5879791-.3131277.5226672c-.1026154.176673-.2039816.3465071-.3806483.4567852-.1705336.111703-.3872925.1624252-.5967257.1370641-.2090357-.0222836-.411768-.1120449-.563732-.2530983-.1536109-.1404836-.248049-.3333991-.2705369-.5245479-.0479857-.3845773-.1054549-.7831744-.1332809-1.2326647-.0879642-1.5836741-.1763827-3.1740162-.2661074-4.7874968-.0986971-2.1484008-.1976214-4.2957189-.2956938-6.43272144-.045487-.97039078-.0908604-1.93855891-.1360635-2.90325056l-.0333912-.68252775c-.0145377-.22579951-.1322019-.44966131-.330959-.56375789-.0952331-.06069573-.2056285-.09779706-.318125-.10685868-.1122126-.01356392-.2275486.00233665-.3323788.04359835-.1074992.03653142-.1992114.10902434-.2739441.19257358-.0748462.08560093-.1210147.19103482-.1639462.2952719.075698-.21656692.2138627-.42743471.431303-.51320661.2075024-.09637228.4545292-.08126959.6504469.01783827.1009686.04770172.1807554.12652068.2484464.21172267.0563335.09215492.1060228.1924596.1149952.30131297.0250434.21480019.0319148.43227898.0490079.64998572.0616715.92662147.1223776 1.83717139.1821751 2.7353542.132713 1.95041307.2614508 3.84588657.388485 5.71559997zM4.01171415 11.466717c.16661527-.3492427.3389661-.7105105.51080585-1.0711514-.03333441.052432-.06536271.1025843-.09642561.1514828-.16706957.3243945-.31136726.6571667-.41438024.9196686zm4.19661507-7.72197858c-.68150984 1.08511426-1.3982281 2.39580007-2.13680964 3.79442344C5.341513 8.94445321 4.59214179 10.4405887 3.8616809 11.9191708c-.00289618.0194341-.00249866.0324851.00204436.0349357 1.27886023-2.45051169 2.76334893-5.50786671 4.34460396-8.20936808zm1.72595291 2.54253293c.0042-.03188137.0091-.06700649.0138-.1-.0065.00259499-.0126.0089898-.0188.0089898.0015.02891567.0032.05931418.005.0910102zM20.8483748 28.5549299c-.1416286.2533833-.4983693.4258959-.8597666.4005918-.3613405-.0169834-.7244414-.2378247-.8666947-.5292782-.0785943-.1432761-.0783671-.2864382-.1028426-.4314241-.0215794-.1520527-.0432155-.3055303-.065022-.4602047-.0233966-.1499441-.044408-.3434865-.0670663-.5184498l-.0238509-.3014839c-.0059627-.104921-.0038616-.2241468-.0060195-.3365336.0693946-2.2235724.1441841-4.6114507.2186896-6.9994999.0461117-1.132702-.0008518-2.2668288.0607629-3.7786369.0268039-.9449156.040149-1.7007912.0515633-2.4095919.002669-.177186.0055652-.3514653.0082342-.5250038.0009087-.1212205.0015901-.2420991.0023851-.3638895.0005111-.1792376.0011358-.3616667.0015901-.556121l-.0707008.5949321c.0130612-.222608.0206708-.4308542.0245323-.621547-.0006246-.0949475.0116415-.1872164-.0141969-.2726464-.0245891-.084917-.0818311-.1567831-.1553713-.2011793-.1454334-.0923829-.3495854-.0779641-.4804812.0401789-.1201061.1268626-.2201661.2650095-.3250531.3960325-.295637.3788781-.6112066.7834593-.9758976 1.250788.017661.013051-.1645709.3388702-.3829198.6397842-.5377232.7680717-1.0757304 1.5362574-1.5871042 2.2665438-.2582139.3698166-.5097836.7298876-.7511316 1.0753688a2475.49270027 2475.49270027 0 0 1-.3811594.5465465c-.18757.2631858-.3704833.5195326-.5478315.7681857-.0498596.0676486-.098981.1394007-.1496357.2039718l-.1541788.1844808-.3088118.3690187c-.2107393.294702-.399445.36634-.5952492.5149163-.0968799.0645712-.1950092.1415664-.290299.1947963-.0910876.0445102-.1935895.0863988-.3094365.1115319-.2297065.052888-.4989372.052546-.7512452-.0140198-.253387-.0649131-.4884883-.1939984-.6735028-.3523202-.1860367-.1586068-.3139795-.3485018-.38439628-.5122378-.06235295-.2032309-.11493841-.4198548-.1725212-.6228008-.02850745-.1025274-.05667418-.2038009-.08450018-.3042196-.00584914-.137349-.01135755-.2731593-.01692275-.4073738.01232294-.3240525.02333977-.6159049.03424302-.8998355.00857495-.1581509.01431051-.353916.01891032-.5810833.00136291-.1037241.00283939-.2142302.00437266-.3305495-.00085182-.0759124-.00170364-.1555862-.0027826-.2381096-.00329369-.3299226-.01010822-.707262-.00380478-1.0848293.0301543-.9175598.06030859-1.8371714.09046289-2.7545033-.00812065.0408628-.01561663.0779641-.02243116.1119879-.02799636.7470419-.05656061 1.50571-.07444875 2.2639792-.01169828.4431073-.02396443.9005195-.03628737 1.3688739-.01152792.3141361-.02288547.6320335-.03452696.9530085-.01783135.4103373-.0357195.824721-.05366443 1.2422392.00749599.1433901.00880211.2970957.02146577.432222l.09364301.314193c.06422695.2056816.11902714.4280616.18916001.6204073.07740171.1585497.20744568.3383573.38672458.4890993.1783136.1507989.3992179.2728173.6330131.3419477.2336816.0698714.4804244.0897043.7009313.0605248.1098843-.0147038.212443-.0389821.3051206-.071923.0911443-.0344798.1691707-.0644002.2583275-.1306811.1727483-.1159203.3439066-.2309287.5134181-.3445693l.0633751-.0425725c.0218633-.0222836.0445784-.0518051.0666688-.0773372l.1331105-.1579229c.0881914-.104864.1759853-.2091581.2633249-.3128252.0931319-.1136977.1884785-.215997.2792253-.3384713l.2709912-.3719822.2696283-.3706714.2402122-.3364196c.2107961-.3046185.4205701-.6078692.6297194-.910265.4085879-.601999.8139389-1.1993818 1.2165641-1.7925472.4004104-.589404.8011048-1.165187 1.208273-1.7271782.2009151-.2801122.4142667-.5607373.6133646-.8260888.0848976-.1137546.1715558-.2310997.2600879-.3429736.080525-.10475.1668424-.2084742.2554881-.314307.0896678-.1068587.2431651-.1476074.3716758-.1084544.1301576.0355055.2329434.1495451.2478786.2809101.0073256.130396.0019308.2638127.003464.4006488l-.000795.4199688-.0198757.8924267c-.0144809.6320905-.0291321 1.263611-.0437834 1.8949606-.0150487 1.132474-.0303246 2.2699633-.0452598 3.4016394-.0155599 1.1623945-.0482696 2.4120996-.0815472 3.6430546-.0398082 1.4704894-.0788782 2.9180113-.1139163 4.2164439.0044295.1603165.0039184.3263322.0232262.4545626.0073257.0677627.0147081.1350124.0220337.2016922.0095403.0585301.0193078.1166042.0287346.1738804.0371392.2419851.0766635.4143268.1111336.6066154.0378775.1737664.0499165.3343109.1137459.490923.0682589.1566121.2057988.3042195.3686093.3963745.1663881.1018434.4792887.2146862.7843525.1604874.3129573-.0352776.5403923-.2434098.6244949-.4061769zm1.0059951-4.6144142c-.3142067.844839-.6394869 1.7203392-.9661869 2.599259-.0817175.2232919-.3126733.3714122-.5393133.3556827-.2247659-.0056422-.4410137-.1634511-.4817305-.3830955-.0233966-.1068017-.0118118-.2174218-.0102786-.3268451l.0091428-.3314614c.0068714-.2240898.0137427-.4470967.020614-.6686219.0159574-.4331908.0314036-.8597136.0467931-1.2772319.0270878-.6287279.0534941-1.2441769.0792757-1.8430985.0615012-1.511865.1457174-4.4395648.1719533-6.801854.0028394-.5901449.0052813-1.1451261.0074392-1.6347383-.0023283-.2442647-.0043726-.4722299-.0065306-.6798492-.0051676-.216054-.0098242-.4107933-.013913-.5812542-.0208411-.7717191-.073029-.9903377-.1604254-.5560071.0111872.1209355.0206708.2654655.0280532.4326779.0054516.1626532.0114143.3416058.0180017.5362881.0095971.373293.0131748.8071107.0115847 1.2910808-.0030665.9677122-.0265199 2.1350649-.0624097 3.4149754-.0429316 1.2801955-.0898383 2.6730057-.1373696 4.091975-.049235 1.2686262-.0993786 2.5604479-.1472507 3.7980709-.0180585.4996426-.0421933.988172-.0524151 1.4557286-.00159.2352031.1432755.4572982.3512323.5459766.2016533.0978541.4507812.0803577.6289812-.0412047.1914883-.1171741.2534437-.3406939.3273246-.5259157.0730858-.1903509.143673-.3741478.2112504-.5504789.1322587-.3495846.2532166-.6695337.3606023-.9532364.2144305-.5768089.3228384-.9105499.4353349-1.2813923.0849545-.3055873.0524719-.3568225-.12976-.0854299zm10.6178336-7.5068934c-.0806954.1621402-.16105.3235396-.2412911.4848819l-.0720069.1629382c-.0549138.1158633-.1101115.2321825-.1662178.3504394-.0308925.0612657-.0620122.1227593-.0934726.1851078-.0329369.0615506-.0605925.1310229-.1171531.1769579-.1090325.0967143-.2922866.0828654-.3871222-.0351636.0911444.0926109.2577029.1088534.369234.0222266.0570149-.0412617.0910876-.1056049.1206172-.1675544l.0915987-.1815743.1699089-.3462221.0774585-.1639639.2484464-.4880735zm-3.4040851-6.2888754c.2449824-.29624077.7101309-.38799676 1.0665308-.21571207.1785975.08024377.3303912.21844767.4193776.38463427.0937566.1675544.104887.3492426.1133483.5286512.0207843.3589882.0555385.7390062.051904 1.172311-.0054516.438605-.0109032.8784068-.0164116 1.3189495-.0197622 1.4614278-.0398082 2.9349377-.0597975 4.4000129-.0007951.3877118-.0186832.7680717-.0049406 1.1398829.0228287.1858487.1428212.3542009.3065971.4451021.1647413.0909011.368439.1119309.5483994.045821.1861502-.0577892.3168189-.2204994.4009215-.3892506.0891-.1670415.1779728-.333912.2667321-.5002126.1676375-.3253633.3342527-.6486749.4995051-.9696499.4083607-.8046601.8263186-1.6283553 1.2469455-2.4571797.4345967-.8679774.8696477-1.7423378 1.2854476-2.6135068.8352911-1.7401152 1.6062985-3.45982752 2.2144953-5.04390057l-.0638294-.02826768-.12976.35283311c-.5488537 1.20308624-1.0256437 2.15541078-1.5102136 3.15127664.0246459-.0579601.0513361-.1202516.0759252-.1780408-.0456005.1008176-.091485.2016922-.1381078.3044475-.3246556.6640056-.6556146 1.3546831-1.0260411 2.1568926-.169114.3677648-.3412377.7423116-.5142699 1.1184541-.6641328 1.3744591-1.5461035 3.0868765-1.8963135 3.7496283-.1208444.2254006-.2404962.4556454-.3698587.6838386-.1328833.2328664-.4384015.3265031-.676115.2310997-.1191407-.0445672-.2198822-.1325048-.2769539-.2428969-.060195-.1107911-.0621258-.2386226-.0588889-.3611539.0007951-.2519015.0015333-.5024352.0022715-.7511452.0023851-1.3447666.0046566-2.64508.0068714-3.8910237.0023282-.3905614.0047133-.7743977.0067577-1.1529339-.0003407-.3852042.0128908-.779413-.0204436-1.106771-.0303247-.3300935-.0670663-.6161329-.1016501-.8933385-.0367984-.2768067-.2444145-.56746234-.5499894-.69193133-.2964889-.12891431-.6682783-.11740207-.9326821.0661099-.1328265.09090112-.2318076.20516863-.3169324.34576623-.0881914.1350693-.1766667.2704806-.2657099.4066328-.087226.1417944-.1779161.2615331-.2615644.4244712-.0837052.1555293-.1679782.3119134-.2528191.4694373-.1704769.3098617-.3340824.6253085-.4925202.9476513.1876835-.3632056.4421494-.7955985.6933785-1.2270796.123059-.2251726.2553177-.4110782.3777521-.6033099.1269207-.1851077.2303312-.3817277.352652-.5265995z" mask="url(#d)"/>
    </g>
    <path fill="#FFF" d="M43.4200933 6.80908627c.1042623 1.63513725.2093765 3.28241363.3155128 4.94365293.0921097 1.2769469.1835948 2.5454592.2750799 3.8134585.0751302 1.1776111.152759 2.3953441.2326594 3.6480128.0150487.2516166.0302111.5045439.0453166.7587251.0091428.1256088.0050541.2549791.0496893.3747178.0411711.1197387.1190839.2270533.2220969.3027377.2047767.1546174.5034235.1759891.729893.0478157.2407801-.1255518.3213051-.4033274.446011-.6253085.2392469-.4639091.4800269-.9305538.7214317-1.3987373.3086414-.5871243.6181915-1.1761864.9280255-1.7659323 1.250012-2.3541394 2.52626-4.7057712 3.8344795-6.94552912.0404329-.20089431-.0073824-.25685976-.1902389-.09112908-1.3759673 2.2575392-2.6360876 4.5683652-3.8698016 6.8920713l-.9164976 1.7464412-.5683318 1.1079678c-.099265.1719997-.1569614.3856601-.3326627.5000416-.1708743.1129568-.4048967.1040091-.5713984-.0075228-.0838187-.0551676-.1499764-.1362092-.1869453-.2296749-.04066-.0934658-.0352652-.1971329-.0432722-.2967537l-.0322555-.6058175-.1125533-2.2733257-.1227751-2.7274894c-.0050541-.0545407-.0102218-.1108481-.0152759-.1653888-.1417991-1.5075337-.259804-3.4887791-.3793422-5.56394614-.0324826-.57139472-.065022-1.14911548-.0978453-1.72672226-.0423637-.66104203-.0515065-1.39451999-.177405-1.8939917-.0264631-.13518336-.053494-.25019179-.0802979-.36804979-.0288481-.12013765-.0486103-.23263846-.0821718-.3410929-.0600815-.21992941-.236805-.44282236-.4837181-.56193417-.240553-.12731855-.5343728-.1518818-.7891795-.08759562-.2553177.06867451-.4625362.23537405-.5684454.42823259l-.3449856.64536943c-.0567878.11056311-.1124398.21001292-.1690004.33009358l-.171215.38617301-.554135 1.38967574-.4764492 1.17145607c-.3132413.7627145-.6351711 1.52195254-.9602809 2.27976579-.6516395 1.51522757-1.3263916 3.02031067-2.0138074 4.52015057.7480083-1.5074197 1.4551862-3.0065758 2.134311-4.50504788.3390229-.74937854.673446-1.49767424 1.0009977-2.24779367l.4911573-1.132588.5048999-1.18422212.3137524-.7084018c.1068178-.22859209.2013126-.46647375.3182386-.68748599.1182889-.22203809.3554345-.37403387.6109226-.40999538.2550906-.03043335.5281261.04183161.720012.21650993.2060259.16721246.2793957.43336181.2880275.68081801l.053494.76556407c.0346973.52038751.0509954 1.06892873.0742784 1.6020253"/>
    <path fill="#FFF" d="M28.1405813 18.8529484c.5879804-1.3465334 1.1960069-2.691015 1.840775-4.0241554.2216426-.4652199.4471468-.9185857.6696412-1.3666512l.153327-.2997742.0562766-.118029c.0403193-.0810986.0805251-.1617983.1203333-.2418711.080809-.1644768.172294-.3299796.2655395-.5024352.0444081-.0881086.1256145-.1551873.2173836-.1828281.091769-.0247342.1930783-.0140768.2699122.0351066.0793892.045992.129476.1295982.1371992.2168519.0064738.0873107.0050541.1762171.0078367.2671752.0035208.1918897.0070985.3828105.0106761.5733324l.0026122.1519388.0013629.0772802-.0013629.16385-.0064738.7075469c-.0039751.471774-.0081774.9436619-.0122094 1.4170316.027031-1.047899.0541188-2.0988184.0812633-3.1533284l.0060195-.2378816c.0023851-.078705.0062467-.1598036-.0224311-.2346902-.0536645-.1517678-.2154528-.2502488-.3746856-.2426119-.0796165.0025646-.1582675.0312882-.2206773.0813265-.0636022.0502664-.1014229.1232722-.142594.1910919-.0812065.1376909-.166161.2728173-.2425973.4132438-.0763227.1436181-.1523048.2833038-.2174971.4214507-.1182321.2398763-.2344766.4755923-.3494151.7085727-.1398682.2943601-.2778057.5847307-.4142666.8722518-.1309526.2908266-.260599.5787466-.3893937.864558-.5058085 1.1483176-.9756704 2.2749785-1.4465544 3.4416473"/>
    <path fill="#FFF" d="M31.9768326 19.6330167c-.0668392-.2791433-.1415151-.5814822-.1414015-.9742092.012834-.9915345.0253273-1.9621533.037991-2.9314612-.0265199.994726-.0530398 1.9879133-.0791053 2.9667388.0033504.6326034.1518504 1.0468161.2588953 1.4008461.0516201.1652177.1429916.3486727.3183522.5110409.1694546.1615133.4028523.2860963.6497655.3410929.2461181.0558515.5069443.0508932.7258611-.0189211.1063634-.0351066.2041519-.0813836.2846202-.1367221.0377071-.0302054.0750166-.0510642.1127805-.0892484l.1132915-.1167751c.3025652-.3376735.6002466-.5258587.9074684-1.1515092l.4562328-.7910961.4403322-.8295653.5875829-1.1400539c.3800805-.7470419.7496552-1.4979592 1.1155387-2.2500733.6844628-1.4407969 1.3461537-2.8912824 1.9881393-4.3496896.3209644-.72926064.6377265-1.46040196.9482987-2.19387993l.430508-1.02601429.2702529-.67289622.3079032-.77986888c.0478153-.13358759.1253874-.26312881.2488439-.33761643.1198222-.07819206.2694011-.09677122.4046128-.06907345.1364042.02627299.2597472.10965125.3289147.22711031.074903.11728809.0745055.25885446.0850112.39375286l.0603086.83646124.0641134.8988667.0850681 1.32236902.1727483 2.64439607c.0469067.7607768.0934726 1.5159685.1396979 2.2663729-.0985836-2.1460073-.1970535-4.29093164-.2950692-6.42508467-.0185696-.40207359-.0371392-.80380523-.0558224-1.20485297l-.0279395-.60222701c-.0095972-.19605006-.0031801-.41466867-.1396979-.57253455-.12039-.16094342-.3247124-.24842506-.5225609-.24238398-.2006312.00119682-.3922898.11124701-.501152.2789154-.1736001.35870321-.3111969.73381991-.4715087 1.09691145-.1259552.29475898-.2514562.58872008-.3767867.88222525-.1662178.38206964-.3320948.76317043-.4975176 1.14353034-.3406129.77741825-.6862232 1.54845348-1.0324581 2.31413154-.6953661 1.5303302-1.4018625 3.0358123-2.1203412 4.510576-.3578197.7381513-.7217156 1.4672979-1.0875423 2.1883518l-.2751935.5393086c-.1145977.2203284-.2291386.4402578-.3433387.6596173-.2425405.4619714-.4966657.8978408-.7457936 1.3509216-.0314604.0629754-.0625233.0963723-.093643.1372351l-.0934159.1198527-.1871724.2393064-.18757.2383376c-.0625801.0792749-.1244787.1629381-.1906365.2210692-.2660506.2642117-.7879301.347191-1.1897602.1613994-.2024484-.085373-.3766732-.2276233-.4874661-.3899345-.1154495-.1658446-.1471939-.3280988-.1815505-.4992437-.0686563-.3369895-.160255-.7301155-.1642301-1.2379649.0092564-.6976875.0181153-1.3855724.0269741-2.0657065.0023283-.5153723.0045431-1.0250454.0066442-1.5305012.0005679-.1945113.0011358-.4111352.0017036-.6167598-.0386156 1.4388592-.0771745 2.873786-.1149952 4.2813.0039752.1595187.0035209.3251924.0247595.4606037.0131748.1497161.037991.2711646.0612172.3956336.0219769.1325617.0491782.2293899.0739944.3414918.0275989.1127288.0450895.2119506.0808658.3110015.0636591.1990136.2222673.4186011.4557217.5595405.2269239.1475505.5116009.2197015.7808317.2040289.271559-.0096316.5134181-.1260078.666745-.268315.1604822-.1658447.3186929-.3592732.4774714-.5377699l.2377136-.2731593.2398147-.4171763.4777553-.837487.4536206-.8571491.3248828-.6283291c.2153959-.4192279.4282932-.8393108.6371586-1.2608184.4206837-.8417044.8288173-1.6876262 1.2313857-2.5355997-.3698587.7943447-.7457368 1.5862957-1.1297924 2.3743144l-.5823584 1.1797768-.2946149.5883781-.3551506.6897086c-.2851314.5627891-.5915581 1.0762237-.8928739 1.6178689l-.0569013.1007606c-.0189671.0360755-.037991.0675917-.0565606.0843472l-.112383.1272615-.2256745.2541812-.2266968.2536682-.113689.1265207-.1151656.0956884c-.1703633.1227023-.4148346.1976458-.6702659.1987856-.2554313.0035905-.5181315-.0748865-.733357-.2073343-.2189168-.1298262-.3797398-.3224567-.455665-.5014664-.0726883-.170062-.1165285-.3676508-.1775753-.5651257"/>
    <path fill="#FFF" d="M43.3125032 5.21229847c.0316549.37181121.062914.73866417.0940743 1.10677095.0494607.42703577.0980311.84711861.1469971 1.26674551-.0179047-.25993729-.0360073-.52004557-.0536153-.77684834-.0626173-.53463534-.1252345-1.06790289-.1874561-1.59666812"/>
    <path fill="#FFF" d="M37.9748461 10.8665416c-.0202732.0411477-.040944.0834353-.062069.1262357-.4908166 1.0832336-1.0074716 2.1779224-1.5402543 3.2755177-.3538445.7634554-.7284165 1.5376822-1.1166744 2.3206286-.160255.320519-.3217026.6433177-.4843427.9685101-.1352685.2625019-.271048.5344643-.4182419.8083645.1294193-.2428399.2587251-.4853949.3875197-.726696.1437866-.2774906.2869485-.5538414.4290315-.8279126.3631009-.7114223.7149578-1.4145809 1.0479044-2.1019529.6657229-1.37463 1.2615968-2.6821243 1.7571267-3.8426951"/>
    <path fill="#FFF" d="M34.0086871 17.4059622c-.0370256.0071239-.098186-.0009689-.142083-.039552-.0449759-.0373293-.0604789-.097854-.0574124-.1359242-.0135155-.0213148-.0266902-.0489555-.0394107-.0838342.0015901.0821814-.0215225.170347.005906.2530983.0494053.0516911.1525319.0560225.2330001.0062121"/>
    <path fill="#FFF" d="M26.0138969 19.0646653c.6580565-1.5473706 1.3262212-3.0641939 2.0243131-4.5508119.349415-.7433944.7054743-1.47938 1.0783427-2.206361l.2197686-.4222485.2300472-.4278906c.1542355-.2842156.3198286-.5357752.4798565-.8059709l.2424269-.399452.1214122-.1999255c.0406033-.06622384.0811497-.14299112.1211283-.16573064l.4828663-.42789065.2420862-.21291948c.0771745-.052375.158381-.09397864.2571349-.13444246.1952363-.07482957.4455568-.10828346.6930946-.08024374.2480489.02712785.4959275.11016417.7030324.2389645.2104554.12452598.3696315.29606977.4661139.45068716.0461116.07881896.0835916.14635364.1180617.23030182l.108635.25982329c.0698489.1926306.1387893.4114772.1797332.6855483.0161278.0594419.0113576.1473795.0181153.2198154.002158.0777362.012323.1480634.00778.2321256l-.0102786.4896122-.0210683.9832708c-.0144809.8756143-.0290753 1.7487779-.043613 2.6200038l-.017661 1.1703163-.0005111.0885075.0010222.0404068.0021012.0801297.004259.1544465.0126637.0560224c.0110736.0446812.0228287.0834922.0349245.1159203l.006417-.1514829c.0187968-.641665.0376503-1.2819052.0563902-1.917928.0317444-1.3170119.0632616-2.625646.0944381-3.9208871l-.0163549-.2917955c-.0086317-.0928388-.0305518-.1672124-.0453166-.2514456-.0264631-.1785537-.0830237-.2850134-.125217-.4247561-.1001168-.23719776-.1855256-.42885948-.3048367-.59943443-.1324858-.18522171-.359069-.38281053-.6355685-.51223776-.2764428-.12743254-.5952493-.18881216-.8860594-.1643059-.1465124.00826373-.2807586.04166063-.4001833.08001577-.0547434.02336644-.1178914.04428224-.1620722.07084018-.0478721.02399334-.095801.04775871-.1456606.09528945-.1958042.1656167-.3909269.33066349-.5851411.4949694l-.1442408.12424102c-.0237941.01099932-.04844.07192302-.072518.1060608l-.072518.12087857-.2878003.4802086-.2835413.4753644c-.0940973.157011-.1878539.3116854-.2749663.4837991-.0737105.1394007-.1527023.2854124-.2307286.4435633-.0705872.1420223-.1441841.2899717-.2198254.4422524-.0997193.2057956-.2013694.4233883-.2993283.641608-.1995522.4356415-.4014894.8694592-.5665146 1.2123758-1.567626 3.2537471-2.8481899 6.4233179-4.0924096 9.5947125.6042217-1.512036 1.2266723-3.0347864 1.882798-4.5848357.0185696-.0435413.0364578-.0853729.0549706-.1290853"/>
  </g>
</svg>
